<svg xmlns="http://www.w3.org/2000/svg" viewBox="0 0 251.25 62"><defs><style>.cls-1{fill:#ff4d00;}</style></defs><g id="Layer_2" data-name="Layer 2"><g id="Layer_1-2" data-name="Layer 1"><path class="cls-1" d="M71.56,46.5H61.14V42.73H61c-1.76,3.39-6.09,5-10.17,5C39.8,47.69,33.34,39,33.34,29.05c0-11.42,8.22-18.58,17.51-18.58,5.71,0,8.91,2.76,10.17,4.9h.12V11.66H71.56ZM52.42,38c6.53,0,8.72-5.52,8.72-8.91,0-4.21-2.88-8.85-8.78-8.85s-8.6,5-8.6,9C43.76,32.44,46.14,38,52.42,38Z"/><path class="cls-1" d="M91.72,21.46c-.07-.76-.19-2.64-3.27-2.64-2.19,0-3,1.38-3,2.32,0,1.88,2.58,2.95,5.34,3.77C96.74,26.54,103,28.3,103,35.83c0,7.34-6.46,11.86-14.18,11.86-5.27,0-13.24-2.38-14.18-11.55H85a3.71,3.71,0,0,0,4,3.2c1.75,0,3.64-1,3.64-2.7,0-2.69-2.58-3-9.23-5.58-4.52-1.45-8.29-4.4-8.29-9.1,0-6.91,6.28-11.49,13.5-11.49,4.58,0,12.49,1.82,13.37,11Z"/><path class="cls-1" d="M106.09.05h10.42V14.87h.12c1.76-3.14,5.28-4.4,9-4.4,3.32,0,7.28,1.19,9.48,3.83,2.95,3.45,3.26,6.53,3.26,12.74V46.5H127.93v-19c0-1.69,0-7.28-5.59-7.28-5.83,0-5.83,5.21-5.83,6.91V46.5H106.09Z"/><path class="cls-1" d="M153.47,9.24H143.05V.05h10.42Zm0,37.26H143.05V11.66h10.42Z"/><path class="cls-1" d="M10.42,46.5H0V0H10.42Z"/><path class="cls-1" d="M158.27,11.66H168v3.71h.12c1.07-1.7,3.27-4.9,9.48-4.9a15,15,0,0,1,8.91,3c1.89,1.64,4,4.4,4,11.24V46.5H180.11v-19c0-2.45,0-7.22-5.46-7.22-6,0-6,5.15-6,7.28v19H158.27Z"/><path class="cls-1" d="M231.65,42.29c0,5.21-.37,8.54-2.07,11.49-2.7,4.39-9,8.22-17.64,8.22-12.11,0-16.69-7.28-17.38-12.24h12.05c1.51,3.45,5.4,3.45,6.09,3.45,1.32,0,8.47-.12,8.47-9.47V42.67h-.12c-1.07,2-4.08,5-9.54,5-9.48,0-17.58-7.16-17.58-18.33,0-11.92,8.54-18.77,17.58-18.77,3.89,0,7.72,1.39,9.6,4.4h.12V11.66h10.42Zm-19-4.39a8.27,8.27,0,0,0,8.53-8.66c0-5.59-3.82-9-8.47-9a8.47,8.47,0,0,0-8.41,8.66C204.35,34.51,208.37,37.9,212.7,37.9Z"/><polygon class="cls-1" points="23.34 46.5 35.53 46.5 22.13 26.47 35.38 11.6 23.18 11.6 9.94 26.46 23.34 46.5"/><path class="cls-1" d="M241.78,12.62h-2V18.2h-1.65V12.62h-2V11.29h5.67Zm5.43,3,1.65-4.36h2.39V18.2h-1.64V13.31h0l-1.75,4.89h-1.26l-1.74-4.89h0V18.2h-1.65V11.29h2.4Z"/></g></g></svg>